[Header]
# KeyWord<space>Value<CR>FileType htr
DataType HTRS
FileVersion 1.0
NumSegments 32
NumFrames 4
DataFrameRate 24
EulerRotationOrder XYZ
CalibrationUnits m
RotationUnits Degrees
GlobalAxisofGravity Z
BoneLengthAxis Z
ScaleFactor 1.0
[SegmentNames&Hierarchy]
# ObjectName<tab>ParentObjectName<CR>
pelvis	GLOBAL
spine01	pelvis
spine02	spine01
spine03	spine02
neck	spine03
head	neck
Collar_left	spine03
shoulder_up_left	Collar_left
bicep_up_left	shoulder_up_left
forearm_up_left	bicep_up_left
hand_up_left	forearm_up_left
shoulder_down_left	Collar_left
bicep_down_left	shoulder_down_left
forearm_down_left	bicep_down_left
hand_down_left	forearm_down_left
Collar_right	spine03
shoulder_up_right	Collar_right
bicep_up_right	shoulder_up_right
forearm_up_right	bicep_up_right
hand_up_right	forearm_up_right
shoulder_down_right	Collar_right
bicep_down_right	shoulder_down_right
forearm_down_right	bicep_down_right
hand_down_right	forearm_down_right
hip_left	pelvis
thigh_left	hip_left
shin_left	thigh_left
foot_left	shin_left
hip_right	pelvis
thigh_right	hip_right
shin_right	thigh_right
foot_right	shin_right
[BasePosition]
# ObjectName<tab>Tx<tab>Ty<tab>Tz<tab>Rx<tab>Ry<tab>Rz<tab>BoneLength<CR>
pelvis	0.000000	-0.438872	6.292980	90.000003	-0.000000	0.000000	1.677268
spine01	0.000000	1.677268	0.000000	0.000000	-0.000000	0.000000	2.370449
spine02	0.000000	2.370449	0.000000	0.000000	-0.000000	0.000000	2.680865
spine03	0.000000	2.680865	0.000000	0.000000	-0.000000	0.000000	3.160599
neck	0.000000	3.160599	0.000000	0.000000	-0.000000	0.000000	1.269882
head	0.000000	1.269882	0.000000	0.000000	0.000014	0.000000	4.176504
Collar_left	0.000000	3.160599	0.000000	21.069689	1.138138	109.250822	2.543778
shoulder_up_left	0.000001	2.543777	0.000000	-20.742461	-3.950507	-7.147224	2.341869
bicep_up_left	-0.000001	2.341868	0.000000	4.293160	0.027559	-5.998107	4.071239
forearm_up_left	0.000000	4.071239	-0.000000	-8.968416	-0.165229	-2.037328	3.736216
hand_up_left	0.000000	3.736216	0.000000	-0.780378	-0.284650	4.522557	2.141806
shoulder_down_left	0.000001	2.543777	0.000000	-11.374732	11.433438	33.097546	3.448410
bicep_down_left	-0.000001	3.448409	-0.000000	-0.711867	-1.315530	-6.783924	3.064684
forearm_down_left	0.000001	3.064684	0.000000	-17.686662	0.165761	1.581994	3.587720
hand_down_left	0.000000	3.587720	0.000000	11.694505	-0.524996	2.534701	2.862190
Collar_right	0.000000	3.160599	0.000000	21.069689	-1.138138	-109.250822	2.543778
shoulder_up_right	-0.000001	2.543777	0.000000	-20.742461	3.950507	7.147224	2.341869
bicep_up_right	0.000001	2.341868	0.000000	4.293160	-0.027559	5.998107	4.071239
forearm_up_right	0.000000	4.071239	-0.000000	-8.968416	0.165229	2.037328	3.736216
hand_up_right	0.000000	3.736216	0.000000	-0.780378	0.284650	-4.522557	2.141806
shoulder_down_right	-0.000001	2.543777	0.000000	-11.374732	-11.433438	-33.097546	3.448410
bicep_down_right	0.000001	3.448409	-0.000000	-0.711867	1.315530	6.783924	3.064684
forearm_down_right	-0.000001	3.064684	0.000000	-17.686662	-0.165761	-1.581994	3.587720
hand_down_right	0.000000	3.587720	0.000000	11.694505	0.524996	-2.534701	2.862190
hip_left	0.000000	-0.000003	0.000000	-96.241914	89.999996	0.000000	2.616231
thigh_left	0.000000	2.616231	0.000000	-73.061577	0.000001	0.000006	2.153898
shin_left	0.000000	2.153898	0.000000	-11.660560	0.342853	1.646302	2.782515
foot_left	0.000000	2.782514	0.000000	0.241543	0.154340	-77.422202	3.370008
hip_right	0.000000	-0.000003	0.000000	-96.241914	-89.999996	0.000000	2.616231
thigh_right	-0.000000	2.616231	0.000000	-73.061577	-0.000001	-0.000006	2.153898
shin_right	0.000000	2.153898	0.000000	-11.660560	-0.342853	-1.646302	2.782515
foot_right	-0.000000	2.782514	0.000000	0.241543	-0.154340	77.422202	3.370008
[pelvis]
# Tx<tab>Ty<tab>Tz<tab>Rx<tab>Ry<tab>Rz<tab>BoneScaleFactor<CR>
13	0.000000	0.000000	0.000000	0.000000	-0.000000	0.000000	1.000000
14	0.000000	0.000000	0.000000	0.000000	-0.000000	0.000000	1.000000
15	0.000000	0.000000	0.000000	0.000000	-0.000000	0.000000	1.000000
16	0.000000	0.000000	0.000000	0.000000	-0.000000	0.000000	1.000000
[spine01]
# Tx<tab>Ty<tab>Tz<tab>Rx<tab>Ry<tab>Rz<tab>BoneScaleFactor<CR>
13	0.000000	0.000000	0.000000	-6.424888	-0.000000	0.000000	1.000000
14	0.000000	0.000000	0.000000	-7.300945	-0.000000	0.000000	1.000000
15	0.000000	0.000000	0.000000	-8.189750	-0.000000	0.000000	1.000000
16	0.000000	0.000000	0.000000	-9.082804	-0.000000	0.000000	1.000000
[spine02]
# Tx<tab>Ty<tab>Tz<tab>Rx<tab>Ry<tab>Rz<tab>BoneScaleFactor<CR>
13	0.000000	0.000000	0.000000	-5.144110	-0.000000	0.000000	1.000000
14	0.000000	0.000000	0.000000	-5.845528	-0.000000	0.000000	1.000000
15	0.000000	0.000000	0.000000	-6.557152	-0.000000	0.000000	1.000000
16	0.000000	0.000000	0.000000	-7.272179	-0.000000	0.000000	1.000000
[spine03]
# Tx<tab>Ty<tab>Tz<tab>Rx<tab>Ry<tab>Rz<tab>BoneScaleFactor<CR>
13	0.000000	0.000000	0.000000	-6.090047	-0.000000	0.000000	1.000000
14	0.000000	0.000000	0.000000	-6.920448	-0.000000	0.000000	1.000000
15	0.000000	0.000000	0.000000	-7.762931	-0.000000	0.000000	1.000000
16	0.000000	0.000000	0.000000	-8.609443	-0.000000	0.000000	1.000000
[neck]
# Tx<tab>Ty<tab>Tz<tab>Rx<tab>Ry<tab>Rz<tab>BoneScaleFactor<CR>
13	0.000000	0.000000	0.000000	0.000000	-0.000000	0.000000	1.000000
14	0.000000	0.000000	0.000000	0.000000	-0.000000	0.000000	1.000000
15	0.000000	0.000000	0.000000	0.000000	-0.000000	0.000000	1.000000
16	0.000000	0.000000	0.000000	0.000000	-0.000000	0.000000	1.000000
[head]
# Tx<tab>Ty<tab>Tz<tab>Rx<tab>Ry<tab>Rz<tab>BoneScaleFactor<CR>
13	0.000000	0.000000	0.000000	0.000000	-0.000000	0.000000	1.000000
14	0.000000	0.000000	0.000000	0.000000	-0.000000	0.000000	1.000000
15	0.000000	0.000000	0.000000	0.000000	-0.000000	0.000000	1.000000
16	0.000000	0.000000	0.000000	0.000000	-0.000000	0.000000	1.000000
[Collar_left]
# Tx<tab>Ty<tab>Tz<tab>Rx<tab>Ry<tab>Rz<tab>BoneScaleFactor<CR>
13	0.000000	0.000000	0.000000	0.000000	-0.000000	0.000000	1.000000
14	0.000000	0.000000	0.000000	0.000000	-0.000000	0.000000	1.000000
15	0.000000	0.000000	0.000000	0.000000	-0.000000	0.000000	1.000000
16	0.000000	0.000000	0.000000	0.000000	-0.000000	0.000000	1.000000
[shoulder_up_left]
# Tx<tab>Ty<tab>Tz<tab>Rx<tab>Ry<tab>Rz<tab>BoneScaleFactor<CR>
13	0.000000	0.000000	0.000000	-0.836894	-3.206762	-15.977482	1.000000
14	0.000000	0.000000	0.000000	-0.951008	-3.644016	-18.156070	1.000000
15	0.000000	0.000000	0.000000	-1.066782	-4.087632	-20.366361	1.000000
16	0.000000	0.000000	0.000000	-1.183109	-4.533370	-22.587217	1.000000
[bicep_up_left]
# Tx<tab>Ty<tab>Tz<tab>Rx<tab>Ry<tab>Rz<tab>BoneScaleFactor<CR>
13	0.000000	0.000000	0.000000	0.000000	-0.000000	0.000000	1.000000
14	0.000000	0.000000	0.000000	0.000000	-0.000000	0.000000	1.000000
15	0.000000	0.000000	0.000000	0.000000	-0.000000	0.000000	1.000000
16	0.000000	0.000000	0.000000	0.000000	-0.000000	0.000000	1.000000
[forearm_up_left]
# Tx<tab>Ty<tab>Tz<tab>Rx<tab>Ry<tab>Rz<tab>BoneScaleFactor<CR>
13	0.000000	0.000000	0.000000	-5.449212	-4.366791	-6.122715	1.000000
14	0.000000	0.000000	0.000000	-6.192232	-4.962219	-6.957570	1.000000
15	0.000000	0.000000	0.000000	-6.946064	-5.566310	-7.804572	1.000000
16	0.000000	0.000000	0.000000	-7.703501	-6.173291	-8.655626	1.000000
[hand_up_left]
# Tx<tab>Ty<tab>Tz<tab>Rx<tab>Ry<tab>Rz<tab>BoneScaleFactor<CR>
13	0.000000	0.000000	0.000000	0.339395	-14.398660	0.833909	1.000000
14	0.000000	0.000000	0.000000	0.385673	-16.361971	0.947616	1.000000
15	0.000000	0.000000	0.000000	0.432624	-18.353850	1.062977	1.000000
16	0.000000	0.000000	0.000000	0.479800	-20.355251	1.178890	1.000000
[shoulder_down_left]
# Tx<tab>Ty<tab>Tz<tab>Rx<tab>Ry<tab>Rz<tab>BoneScaleFactor<CR>
13	0.000000	0.000000	0.000000	0.000000	-0.000000	0.000000	1.000000
14	0.000000	0.000000	0.000000	0.000000	-0.000000	0.000000	1.000000
15	0.000000	0.000000	0.000000	0.000000	-0.000000	0.000000	1.000000
16	0.000000	0.000000	0.000000	0.000000	-0.000000	0.000000	1.000000
[bicep_down_left]
# Tx<tab>Ty<tab>Tz<tab>Rx<tab>Ry<tab>Rz<tab>BoneScaleFactor<CR>
13	0.000000	0.000000	0.000000	-6.490738	3.563737	-10.058477	1.000000
14	0.000000	0.000000	0.000000	-7.375774	4.049664	-11.429988	1.000000
15	0.000000	0.000000	0.000000	-8.273686	4.542664	-12.821455	1.000000
16	0.000000	0.000000	0.000000	-9.175893	5.038021	-14.219576	1.000000
[forearm_down_left]
# Tx<tab>Ty<tab>Tz<tab>Rx<tab>Ry<tab>Rz<tab>BoneScaleFactor<CR>
13	0.000000	0.000000	0.000000	-7.116458	6.734892	-8.967084	1.000000
14	0.000000	0.000000	0.000000	-8.086812	7.653219	-10.189777	1.000000
15	0.000000	0.000000	0.000000	-9.071287	8.584909	-11.430264	1.000000
16	0.000000	0.000000	0.000000	-10.060470	9.521055	-12.676681	1.000000
[hand_down_left]
# Tx<tab>Ty<tab>Tz<tab>Rx<tab>Ry<tab>Rz<tab>BoneScaleFactor<CR>
13	0.000000	0.000000	0.000000	0.000000	-0.000000	0.000000	1.000000
14	0.000000	0.000000	0.000000	0.000000	-0.000000	0.000000	1.000000
15	0.000000	0.000000	0.000000	0.000000	-0.000000	0.000000	1.000000
16	0.000000	0.000000	0.000000	0.000000	-0.000000	0.000000	1.000000
[Collar_right]
# Tx<tab>Ty<tab>Tz<tab>Rx<tab>Ry<tab>Rz<tab>BoneScaleFactor<CR>
13	0.000000	0.000000	0.000000	0.000000	-0.000000	0.000000	1.000000
14	0.000000	0.000000	0.000000	0.000000	-0.000000	0.000000	1.000000
15	0.000000	0.000000	0.000000	0.000000	-0.000000	0.000000	1.000000
16	0.000000	0.000000	0.000000	0.000000	-0.000000	0.000000	1.000000
[shoulder_up_right]
# Tx<tab>Ty<tab>Tz<tab>Rx<tab>Ry<tab>Rz<tab>BoneScaleFactor<CR>
13	0.000000	0.000000	0.000000	0.938481	2.605762	15.124843	1.000000
14	0.000000	0.000000	0.000000	1.066446	2.961067	17.187170	1.000000
15	0.000000	0.000000	0.000000	1.196273	3.321542	19.279503	1.000000
16	0.000000	0.000000	0.000000	1.326721	3.683741	21.381844	1.000000
[bicep_up_right]
# Tx<tab>Ty<tab>Tz<tab>Rx<tab>Ry<tab>Rz<tab>BoneScaleFactor<CR>
13	0.000000	0.000000	0.000000	0.000000	-0.000000	0.000000	1.000000
14	0.000000	0.000000	0.000000	0.000000	-0.000000	0.000000	1.000000
15	0.000000	0.000000	0.000000	0.000000	-0.000000	0.000000	1.000000
16	0.000000	0.000000	0.000000	0.000000	-0.000000	0.000000	1.000000
[forearm_up_right]
# Tx<tab>Ty<tab>Tz<tab>Rx<tab>Ry<tab>Rz<tab>BoneScaleFactor<CR>
13	0.000000	0.000000	0.000000	-7.376096	7.174303	8.432791	1.000000
14	0.000000	0.000000	0.000000	-8.381855	8.152546	9.582634	1.000000
15	0.000000	0.000000	0.000000	-9.402247	9.145022	10.749208	1.000000
16	0.000000	0.000000	0.000000	-10.427519	10.142245	11.921359	1.000000
[hand_up_right]
# Tx<tab>Ty<tab>Tz<tab>Rx<tab>Ry<tab>Rz<tab>BoneScaleFactor<CR>
13	0.000000	0.000000	0.000000	-3.394473	14.655443	-2.943015	1.000000
14	0.000000	0.000000	0.000000	-3.857322	16.653767	-3.344306	1.000000
15	0.000000	0.000000	0.000000	-4.326906	18.681165	-3.751435	1.000000
16	0.000000	0.000000	0.000000	-4.798735	20.718262	-4.160512	1.000000
[shoulder_down_right]
# Tx<tab>Ty<tab>Tz<tab>Rx<tab>Ry<tab>Rz<tab>BoneScaleFactor<CR>
13	0.000000	0.000000	0.000000	0.000000	-0.000000	0.000000	1.000000
14	0.000000	0.000000	0.000000	0.000000	-0.000000	0.000000	1.000000
15	0.000000	0.000000	0.000000	0.000000	-0.000000	0.000000	1.000000
16	0.000000	0.000000	0.000000	0.000000	-0.000000	0.000000	1.000000
[bicep_down_right]
# Tx<tab>Ty<tab>Tz<tab>Rx<tab>Ry<tab>Rz<tab>BoneScaleFactor<CR>
13	0.000000	0.000000	0.000000	-8.162733	-3.909674	12.481303	1.000000
14	0.000000	0.000000	0.000000	-9.275749	-4.442773	14.183174	1.000000
15	0.000000	0.000000	0.000000	-10.404962	-4.983627	15.909809	1.000000
16	0.000000	0.000000	0.000000	-11.539576	-5.527070	17.644701	1.000000
[forearm_down_right]
# Tx<tab>Ty<tab>Tz<tab>Rx<tab>Ry<tab>Rz<tab>BoneScaleFactor<CR>
13	0.000000	0.000000	0.000000	-4.391743	-4.841559	5.681154	1.000000
14	0.000000	0.000000	0.000000	-4.990574	-5.501723	6.455799	1.000000
15	0.000000	0.000000	0.000000	-5.598117	-6.171493	7.241717	1.000000
16	0.000000	0.000000	0.000000	-6.208568	-6.844466	8.031393	1.000000
[hand_down_right]
# Tx<tab>Ty<tab>Tz<tab>Rx<tab>Ry<tab>Rz<tab>BoneScaleFactor<CR>
13	0.000000	0.000000	0.000000	0.000000	-0.000000	0.000000	1.000000
14	0.000000	0.000000	0.000000	0.000000	-0.000000	0.000000	1.000000
15	0.000000	0.000000	0.000000	0.000000	-0.000000	0.000000	1.000000
16	0.000000	0.000000	0.000000	0.000000	-0.000000	0.000000	1.000000
[hip_left]
# Tx<tab>Ty<tab>Tz<tab>Rx<tab>Ry<tab>Rz<tab>BoneScaleFactor<CR>
13	0.000000	0.000000	0.000000	0.000000	-0.000000	0.000000	1.000000
14	0.000000	0.000000	0.000000	0.000000	-0.000000	0.000000	1.000000
15	0.000000	0.000000	0.000000	0.000000	-0.000000	0.000000	1.000000
16	0.000000	0.000000	0.000000	0.000000	-0.000000	0.000000	1.000000
[thigh_left]
# Tx<tab>Ty<tab>Tz<tab>Rx<tab>Ry<tab>Rz<tab>BoneScaleFactor<CR>
13	0.000000	0.000000	0.000000	0.000000	-0.000000	0.000000	1.000000
14	0.000000	0.000000	0.000000	0.000000	-0.000000	0.000000	1.000000
15	0.000000	0.000000	0.000000	0.000000	-0.000000	0.000000	1.000000
16	0.000000	0.000000	0.000000	0.000000	-0.000000	0.000000	1.000000
[shin_left]
# Tx<tab>Ty<tab>Tz<tab>Rx<tab>Ry<tab>Rz<tab>BoneScaleFactor<CR>
13	0.000000	0.000000	0.000000	0.000000	-0.000000	0.000000	1.000000
14	0.000000	0.000000	0.000000	0.000000	-0.000000	0.000000	1.000000
15	0.000000	0.000000	0.000000	0.000000	-0.000000	0.000000	1.000000
16	0.000000	0.000000	0.000000	0.000000	-0.000000	0.000000	1.000000
[foot_left]
# Tx<tab>Ty<tab>Tz<tab>Rx<tab>Ry<tab>Rz<tab>BoneScaleFactor<CR>
13	0.000000	0.000000	0.000000	0.000000	-0.000000	0.000000	1.000000
14	0.000000	0.000000	0.000000	0.000000	-0.000000	0.000000	1.000000
15	0.000000	0.000000	0.000000	0.000000	-0.000000	0.000000	1.000000
16	0.000000	0.000000	0.000000	0.000000	-0.000000	0.000000	1.000000
[hip_right]
# Tx<tab>Ty<tab>Tz<tab>Rx<tab>Ry<tab>Rz<tab>BoneScaleFactor<CR>
13	0.000000	0.000000	0.000000	0.000000	-0.000000	0.000000	1.000000
14	0.000000	0.000000	0.000000	0.000000	-0.000000	0.000000	1.000000
15	0.000000	0.000000	0.000000	0.000000	-0.000000	0.000000	1.000000
16	0.000000	0.000000	0.000000	0.000000	-0.000000	0.000000	1.000000
[thigh_right]
# Tx<tab>Ty<tab>Tz<tab>Rx<tab>Ry<tab>Rz<tab>BoneScaleFactor<CR>
13	0.000000	0.000000	0.000000	0.000000	-0.000000	0.000000	1.000000
14	0.000000	0.000000	0.000000	0.000000	-0.000000	0.000000	1.000000
15	0.000000	0.000000	0.000000	0.000000	-0.000000	0.000000	1.000000
16	0.000000	0.000000	0.000000	0.000000	-0.000000	0.000000	1.000000
[shin_right]
# Tx<tab>Ty<tab>Tz<tab>Rx<tab>Ry<tab>Rz<tab>BoneScaleFactor<CR>
13	0.000000	0.000000	0.000000	0.000000	-0.000000	0.000000	1.000000
14	0.000000	0.000000	0.000000	0.000000	-0.000000	0.000000	1.000000
15	0.000000	0.000000	0.000000	0.000000	-0.000000	0.000000	1.000000
16	0.000000	0.000000	0.000000	0.000000	-0.000000	0.000000	1.000000
[foot_right]
# Tx<tab>Ty<tab>Tz<tab>Rx<tab>Ry<tab>Rz<tab>BoneScaleFactor<CR>
13	0.000000	0.000000	0.000000	0.000000	-0.000000	0.000000	1.000000
14	0.000000	0.000000	0.000000	0.000000	-0.000000	0.000000	1.000000
15	0.000000	0.000000	0.000000	0.000000	-0.000000	0.000000	1.000000
16	0.000000	0.000000	0.000000	0.000000	-0.000000	0.000000	1.000000
[EndOfFile]
